<?xml version="1.0" standalone="no"?><!DOCTYPE svg PUBLIC "-//W3C//DTD SVG 1.1//EN" "http://www.w3.org/Graphics/SVG/1.1/DTD/svg11.dtd"><svg t="1559275233964" class="icon" style="" viewBox="0 0 1042 1024" version="1.1" xmlns="http://www.w3.org/2000/svg" p-id="4910" xmlns:xlink="http://www.w3.org/1999/xlink" width="24.421875" height="24"><defs><style type="text/css"></style></defs><path d="M311.114129 254.939779a1076.628692 1076.628692 0 0 1-46.719262 133.553126l80.090163 28.921448a1670.14407 1670.14407 0 0 0 85.721501-238.184806l-69.036051-20.02254-15.573087 3.33709H200.920633c11.123634-46.719261 21.204427-95.663249 28.99097-143.494874L134.178831 0.069523A1107.149162 1107.149162 0 0 1 0.625704 421.863806a497.574038 497.574038 0 0 1 75.710232 67.854165 961.15147 961.15147 0 0 0 100.112703-234.778192h134.66549z m-62.57044 548.603707V387.380542H153.367099v429.511304a163.447892 163.447892 0 0 1-66.741802 118.188608 395.445176 395.445176 0 0 1 61.179985 82.314889v-1.320932c15.573087-25.584357 43.382171-54.505805 238.115283-219.205106a528.998303 528.998303 0 0 1-32.258538-78.977798z m624.244416-395.02804a902.474302 902.474302 0 0 1-106.786883 269.261457 1047.985335 1047.985335 0 0 1-103.519316-269.261457h210.306199z m50.125874-96.845136l-16.754973 3.33709H558.962591V177.00482a1698.231244 1698.231244 0 0 0 451.897617-81.202525L940.781316 13.417883a1860.358205 1860.358205 0 0 1-481.861905 80.159685v264.812004c0 177.00482-11.123634 430.69319-134.66549 606.516124a453.566162 453.566162 0 0 1 85.721502 58.955259c118.188608-171.373481 144.607237-427.286578 149.056691-615.345509h15.642609a1243.900333 1243.900333 0 0 0 131.258877 353.870595 597.895309 597.895309 0 0 1-228.104012 172.485844 348.656392 348.656392 0 0 1 61.179985 84.539616 712.260167 712.260167 0 0 0 225.948808-169.148754 610.200828 610.200828 0 0 0 208.081472 172.485844 461.561274 461.561274 0 0 1 67.854166-84.539616 551.454138 551.454138 0 0 1-213.643289-168.03639 1046.038699 1046.038699 0 0 0 160.249847-439.592098z" fill="#4499FF" p-id="4911"></path></svg>