<?xml version="1.0" standalone="no"?><!DOCTYPE svg PUBLIC "-//W3C//DTD SVG 1.1//EN" "http://www.w3.org/Graphics/SVG/1.1/DTD/svg11.dtd"><svg t="1560070099865" class="icon" style="" viewBox="0 0 1024 1024" version="1.1" xmlns="http://www.w3.org/2000/svg" p-id="2860" xmlns:xlink="http://www.w3.org/1999/xlink" width="16" height="16"><defs><style type="text/css"></style></defs><path d="M680.32 643.093333A212.970667 212.970667 0 0 1 512 725.333333c-117.824 0-213.333333-95.509333-213.333333-213.333333s95.509333-213.333333 213.333333-213.333333a212.693333 212.693333 0 0 1 151.466667 63.125333 32 32 0 0 1 61.866666 11.541333V576a64 64 0 0 0 128 0v-64c0-188.522667-152.810667-341.333333-341.333333-341.333333S170.666667 323.477333 170.666667 512s152.810667 341.333333 341.333333 341.333333c59.349333 0 115.157333-15.146667 163.776-41.770666l0.042667 0.064a32 32 0 0 1 35.626666 53.162666l0.085334 0.106667A403.477333 403.477333 0 0 1 512 917.333333C288.149333 917.333333 106.666667 735.850667 106.666667 512S288.149333 106.666667 512 106.666667s405.333333 181.482667 405.333333 405.333333v64a128 128 0 0 1-237.013333 67.093333zM512 661.333333a149.333333 149.333333 0 1 0 0-298.666666 149.333333 149.333333 0 0 0 0 298.666666z" p-id="2861" fill="#999999"></path></svg>